<svg width="93" height="24" viewBox="0 0 93 24" fill="none" xmlns="http://www.w3.org/2000/svg">
<path d="M17.096 0.431999H21.032V23.112H17.096V0.431999ZM0.68 0.959999H9.656V4.752H4.616V16.896H8.888C9.848 16.896 10.632 16.776 11.24 16.536V12.168H7.256V8.376H11.24V0.431999H15.152V22.872H11.24V20.232C10.6 20.536 9.776 20.688 8.768 20.688H0.68V0.959999ZM40.0033 0.431999H44.3233V11.328H40.0033V0.431999ZM23.6353 5.76C23.6353 4.128 24.1473 2.848 25.1713 1.92C26.2113 0.991999 27.6353 0.527999 29.4433 0.527999H32.1073C33.9153 0.527999 35.3313 0.991999 36.3553 1.92C37.3953 2.848 37.9153 4.128 37.9153 5.76C37.9153 7.392 37.3953 8.672 36.3553 9.6C35.3313 10.528 33.9153 10.992 32.1073 10.992H29.4433C27.6353 10.992 26.2113 10.528 25.1713 9.6C24.1473 8.672 23.6353 7.392 23.6353 5.76ZM25.6273 12.216H44.3233V19.104H30.1873V19.968H44.5873V23.256H25.8673V16.32H40.0033V15.504H25.6273V12.216ZM28.0033 5.76C28.0033 6.256 28.1793 6.648 28.5312 6.936C28.8833 7.208 29.3633 7.344 29.9713 7.344H31.5793C32.1873 7.344 32.6673 7.208 33.0193 6.936C33.3713 6.648 33.5473 6.256 33.5473 5.76C33.5473 5.264 33.3713 4.88 33.0193 4.608C32.6673 4.32 32.1873 4.176 31.5793 4.176H29.9713C29.3633 4.176 28.8833 4.32 28.5312 4.608C28.1793 4.88 28.0033 5.264 28.0033 5.76ZM47.9825 8.76H55.8065V4.752H47.8865V0.959999H60.1265V12.504H52.3025V16.896H60.3665C61.0545 16.896 61.6305 16.848 62.0945 16.752C62.5585 16.64 63.0385 16.44 63.5345 16.152V0.431999H67.8545V23.112H63.5345V19.68C62.8145 20.352 61.7185 20.688 60.2465 20.688H47.9825V8.76ZM86.1778 19.416H72.0178V16.2H90.4978V23.112H86.1778V19.416ZM70.5058 12.072H79.1938V11.256H72.2098V0.576H90.3058V3.84H76.5298V4.512H90.1138V7.296H76.5298V7.992H90.6898V11.256H83.5138V12.072H92.2018V15.528H70.5058V12.072Z" fill="black"/>
</svg>
